<?xml version="1.0" encoding="utf-8"?>
<svg width="11" height="11" viewBox="0 0 11 11" fill="none" xmlns="http://www.w3.org/2000/svg">
  <path d="M 5.832 2.209 L 6.519 2.209 C 7.18 2.209 7.716 2.744 7.716 3.405 L 7.716 5.622 C 7.716 6.284 7.18 6.819 6.519 6.819 L 5.832 6.819 C 5.17 6.819 4.635 6.284 4.635 5.622 L 4.635 5.465 C 5.255 5.42 5.744 4.902 5.744 4.271 L 5.744 2.212 C 5.774 2.209 5.802 2.209 5.832 2.209 Z" style="stroke: rgb(209, 209, 209); transform-box: fill-box; transform-origin: 50% 50%; stroke-width: 1.25px;" transform="matrix(0, -1, 1, 0, 0, 0.000001)"/>
  <rect x="1.613" y="1.159" width="3.081" height="4.61" style="stroke: rgb(209, 209, 209); transform-box: fill-box; transform-origin: 50% 50%; stroke-width: 1.25px;" rx="1.196" ry="1.196" transform="matrix(0, -1, 1, 0, 1.670628, 3.021934)"/>
</svg>