<?xml version="1.0" encoding="utf-8"?>
<svg viewBox="0 0 155 145" xmlns="http://www.w3.org/2000/svg">
  <path d="M 92.915 0 C 58.63 0 30.839 27.776 30.839 62.04 C 30.839 96.304 58.63 124.093 92.915 124.093 C 127.196 124.093 155 96.317 155 62.04 C 154.987 27.776 127.196 0 92.915 0 Z" style="fill: rgb(249, 205, 14);"/>
  <path d="M 138.485 60.205 C 130.237 54.596 126.778 50.289 125.283 47.604 C 123.787 44.918 121.584 40.007 119.35 37.588 C 111.382 28.939 96.252 30.393 99.494 15.247 C 90.943 35.433 120.187 31.533 118.846 46.568 C 117.084 40.145 109.835 38.03 109.835 38.03 C 109.835 38.03 108.253 45.539 116.107 48.959 C 105.577 55.431 107.884 71.945 67.729 68.779 C 50.824 67.448 48.633 72.959 44.541 75.794 C 38.966 79.658 32.668 79.456 32.668 79.456 C 38.561 80.962 41.5 80.748 44.68 79.721 C 44.047 80.316 43.452 80.962 42.893 81.672 C 36.064 90.535 35.073 99.808 22.341 101.821 C 22.341 101.821 15.791 111.015 9.366 123.021 C 5.841 129.593 2.359 137.015 0 144.22 C 3.447 137.598 7.2 131.404 11.178 125.691 C 24.38 106.734 40.104 93.084 55.386 86.826 C 72.733 79.737 83.277 79.151 87.181 80.887 C 88.535 81.48 91.081 86.229 83.162 88.561 C 74.166 91.208 73.43 89.851 65.486 91.107 C 48.127 93.868 28.194 105.685 14.914 128.403 C 32.009 107.811 47.873 99.44 60.216 96.121 C 79.843 90.829 88.168 100.252 111.114 89.917 C 111.114 89.917 102.258 104.479 79.715 111.039 C 117.551 105.228 122.71 79.532 122.71 79.532 C 122.71 79.532 109.166 87.56 107.325 82.495 C 105.793 78.253 113.053 76.391 120.721 60.068 C 123.925 58.838 131.949 64.967 138.46 60.205 L 138.485 60.205 Z" style=""/>
</svg>