<svg width="20" height="20" viewBox="0 0 20 20" fill="none" xmlns="http://www.w3.org/2000/svg">
<path d="M17.1421 10.9384C17.1821 10.6384 17.2021 10.3284 17.2021 9.99844C17.2021 9.67844 17.1821 9.35844 17.1321 9.05844L19.1621 7.47844C19.3421 7.33844 19.3921 7.06844 19.2821 6.86844L17.3621 3.54844C17.2421 3.32844 16.9921 3.25844 16.7721 3.32844L14.3821 4.28844C13.8821 3.90844 13.3521 3.58844 12.7621 3.34844L12.4021 0.808437C12.3621 0.568437 12.1621 0.398438 11.9221 0.398438H8.08206C7.84206 0.398438 7.65206 0.568437 7.61206 0.808437L7.25206 3.34844C6.66206 3.58844 6.12206 3.91844 5.63206 4.28844L3.24206 3.32844C3.02206 3.24844 2.77206 3.32844 2.65206 3.54844L0.742063 6.86844C0.622063 7.07844 0.662063 7.33844 0.862063 7.47844L2.89206 9.05844C2.84206 9.35844 2.80206 9.68844 2.80206 9.99844C2.80206 10.3084 2.82206 10.6384 2.87206 10.9384L0.842063 12.5184C0.662063 12.6584 0.612063 12.9284 0.722063 13.1284L2.64206 16.4484C2.76206 16.6684 3.01206 16.7384 3.23206 16.6684L5.62206 15.7084C6.12206 16.0884 6.65206 16.4084 7.24206 16.6484L7.60206 19.1884C7.65206 19.4284 7.84206 19.5984 8.08206 19.5984H11.9221C12.1621 19.5984 12.3621 19.4284 12.3921 19.1884L12.7521 16.6484C13.3421 16.4084 13.8821 16.0884 14.3721 15.7084L16.7621 16.6684C16.9821 16.7484 17.2321 16.6684 17.3521 16.4484L19.2721 13.1284C19.3921 12.9084 19.3421 12.6584 19.1521 12.5184L17.1421 10.9384ZM10.0021 13.5984C8.02206 13.5984 6.40206 11.9784 6.40206 9.99844C6.40206 8.01844 8.02206 6.39844 10.0021 6.39844C11.9821 6.39844 13.6021 8.01844 13.6021 9.99844C13.6021 11.9784 11.9821 13.5984 10.0021 13.5984Z" fill="black"/>
</svg>
