<?xml version="1.0" encoding="utf-8"?>
<svg viewBox="0 0 1266 465" xmlns="http://www.w3.org/2000/svg" xmlns:bx="https://boxy-svg.com">
  <defs>
    <style bx:fonts="Roboto Condensed">@import url(https://fonts.googleapis.com/css2?family=Roboto+Condensed%3Aital%2Cwght%400%2C100..900%3B1%2C100..900&amp;display=swap);</style>
    <style bx:fonts="Roboto">@import url(https://fonts.googleapis.com/css2?family=Roboto%3Aital%2Cwght%400%2C100%3B0%2C300%3B0%2C400%3B0%2C500%3B0%2C700%3B0%2C900%3B1%2C100%3B1%2C300%3B1%2C400%3B1%2C500%3B1%2C700%3B1%2C900&amp;display=swap);</style>
  </defs>
  <rect x="616.903" y="0.576" width="67.164" height="367.684" style="stroke-width: 1.5px; fill: rgb(201, 234, 255);"/>
  <rect x="704.067" y="0.576" width="184.266" height="41.27" style="stroke-width: 1.5px; fill: rgb(229, 229, 229);"/>
  <text style="fill: rgb(29, 29, 29); font-family: 'Roboto Condensed'; font-size: 20px; font-weight: 500; white-space: pre; text-anchor: middle;" x="796.2" y="28.089">PUSH</text>
  <text style="fill: rgb(29, 29, 29); font-family: 'Roboto Condensed'; font-size: 24px; font-weight: 500; white-space: pre; text-anchor: middle; transform-box: fill-box; transform-origin: 40.203% 40.8164%;" transform="matrix(0, 1, -1, 0, 523.733181, 45.3634)" x="141.086" y="140.559">FRONTENDS</text>
  <rect x="704.067" y="39.411" width="184.266" height="144.659" style="stroke-width: 1.5px; fill: rgb(242, 242, 242);"/>
  <rect x="704.067" y="204.07" width="184.266" height="41.27" style="stroke-width: 1.5px; fill: rgb(229, 229, 229);"/>
  <text style="fill: rgb(29, 29, 29); font-family: 'Roboto Condensed'; font-size: 20px; font-weight: 500; white-space: pre; text-anchor: middle;" x="798.123" y="231.583">PULL</text>
  <rect x="704.067" y="242.905" width="184.266" height="125.355" style="stroke-width: 1.5px; fill: rgb(242, 242, 242);"/>
  <text style="fill: rgb(29, 29, 29); font-family: Roboto; font-size: 16px; white-space: pre;" transform="matrix(1, 0, 0, 1, 378.842255, -33.983219)"><tspan x="339.029" y="302.201">Instances<tspan x="339.02899169921875" dy="1.3em">​</tspan>Class Hierarchy<tspan x="339.02899169921875" dy="1.3em">​</tspan>Text Classification</tspan><tspan x="339.02899169921875" dy="1.3em">​</tspan><tspan>Image Classification</tspan><tspan x="339.02899169921875" dy="1.3em">​</tspan><tspan>Named Entities</tspan><tspan x="339.02899169921875" dy="1.3em">​</tspan></text>
  <rect x="908.333" y="0.576" width="100.295" height="367.684" style="stroke-width: 1.5px; fill: rgb(201, 234, 255);"/>
  <text style="fill: rgb(29, 29, 29); font-family: 'Roboto Condensed'; font-size: 24px; font-weight: 500; white-space: pre; text-anchor: middle; transform-origin: -93.187px -151.332px;" x="-141.086" y="-140.559" transform="matrix(0, -1, 1, 0, 1032.337769, 290.348801)">BACKEND</text>
  <rect x="1028.628" y="0.576" width="67.164" height="173.289" style="stroke-width: 1.5px; fill: rgb(201, 234, 255);"/>
  <text style="fill: rgb(29, 29, 29); font-family: 'Roboto Condensed'; font-size: 24px; font-weight: 500; white-space: pre; text-anchor: middle; transform-origin: -93.187px -151.332px;" x="-141.086" y="-140.559" transform="matrix(0, -1, 1, 0, 1152.524902, 187.756042)">TOOLS</text>
  <rect x="1028.628" y="194.971" width="67.164" height="173.289" style="stroke-width: 1.5px; fill: rgb(201, 234, 255);"/>
  <text style="fill: rgb(29, 29, 29); font-family: 'Roboto Condensed'; font-size: 24px; font-weight: 500; white-space: pre; text-anchor: middle; transform-origin: -93.187px -151.332px;" x="-141.086" y="-140.559" transform="matrix(0, -1, 1, 0, 1152.524414, 383.942154)">DATA</text>
  <rect y="0.576" width="149.566" height="76.028" style="stroke-width: 1.5px; fill: rgb(255, 234, 139);" x="1115.792"/>
  <text style="fill: rgb(29, 29, 29); font-family: 'Roboto Condensed'; font-size: 20px; font-weight: 500; text-anchor: middle; white-space: pre; transform-origin: 1178.9px 33.63px;" x="1190.575" y="44.403">Databases</text>
  <rect y="97.568" width="149.566" height="76.028" style="stroke-width: 1.5px; fill: rgb(255, 234, 139);" x="1115.792"/>
  <text style="fill: rgb(29, 29, 29); font-family: 'Roboto Condensed'; font-size: 20px; font-weight: 500; text-anchor: middle; white-space: pre; transform-origin: 1178.9px 130.622px;" x="1190.575" y="141.395">ML Models</text>
  <path d="M 448.337 39.411 L 347.268 184.07 M 448.337 328.729 L 347.268 184.07 M 448.337 236.622 L 347.268 184.07 M 448.337 131.518 L 347.268 184.07" style="fill: none; stroke-width: 2px; stroke-linecap: round;"/>
  <path d="M 448.91 38.591 C 449.362 38.908 449.473 39.531 449.157 39.984 L 350.421 181.304 L 447.876 130.631 C 448.366 130.376 448.969 130.567 449.224 131.057 C 449.479 131.547 449.288 132.15 448.798 132.405 L 349.436 184.07 L 448.798 235.735 C 449.288 235.99 449.479 236.593 449.224 237.083 C 448.969 237.573 448.366 237.764 447.876 237.509 L 350.421 186.836 L 449.157 328.156 C 448.84 327.704 448.217 327.593 447.764 327.909 C 447.312 328.226 447.201 328.849 447.517 329.302 L 346.462 184.662 C 346.408 184.588 346.364 184.508 346.333 184.424 C 346.289 184.308 346.268 184.189 346.268 184.07 C 346.268 184.003 346.275 183.935 346.289 183.867 C 346.308 183.775 346.34 183.684 346.387 183.597 C 346.408 183.557 346.433 183.517 346.46 183.48 L 447.517 38.838 C 447.834 38.386 448.457 38.275 448.91 38.591 Z M 346.824 184.966 L 346.821 184.965 C 346.812 184.96 346.804 184.956 346.795 184.951 C 346.739 184.921 346.685 184.885 346.635 184.844 C 346.694 184.892 346.757 184.933 346.824 184.966 Z" style="fill: none;"/>
  <path d="M 448.91 38.591 C 449.362 38.908 449.473 39.531 449.157 39.984 L 414.701 89.301 L 414.701 85.807 L 447.517 38.838 C 447.834 38.386 448.457 38.275 448.91 38.591 Z M 350.421 181.304 L 377.01 167.479 L 377.01 169.732 L 349.436 184.07 L 377.01 198.408 L 377.01 200.661 L 350.421 186.836 L 377.01 224.893 L 377.01 228.385 L 346.462 184.662 C 346.408 184.588 346.364 184.508 346.333 184.424 C 346.289 184.308 346.268 184.189 346.268 184.07 C 346.268 184.003 346.275 183.935 346.289 183.867 C 346.308 183.775 346.34 183.684 346.387 183.597 C 346.408 183.557 346.433 183.517 346.46 183.48 L 377.01 139.754 L 377.01 143.247 Z M 447.876 130.631 C 448.366 130.376 448.969 130.567 449.224 131.057 C 449.479 131.547 449.288 132.15 448.798 132.405 L 414.701 150.134 L 414.701 147.881 Z M 448.798 235.735 C 449.288 235.99 449.479 236.593 449.224 237.083 C 448.969 237.573 448.366 237.764 447.876 237.509 L 414.701 220.259 L 414.701 218.006 Z M 449.157 328.156 C 448.84 327.704 448.217 327.593 447.764 327.909 C 447.312 328.226 447.201 328.849 447.517 329.302 L 414.701 282.332 L 414.701 278.839 Z M 346.795 184.951 C 346.776 184.941 346.756 184.929 346.738 184.918 C 346.758 184.931 346.779 184.943 346.801 184.954 C 346.799 184.953 346.797 184.952 346.795 184.951 Z" style="fill: rgb(206, 206, 206);"/>
  <path d="M 449.197 38.182 C 449.494 38.416 449.754 38.809 449.814 39.149 C 449.874 39.489 449.765 39.948 449.567 40.27 L 351.997 179.921 L 447.645 130.187 C 447.991 130.032 448.46 129.984 448.789 130.088 C 449.118 130.192 449.493 130.491 449.668 130.826 C 449.842 131.162 449.871 131.641 449.767 131.97 C 449.663 132.299 449.354 132.655 449.029 132.849 L 350.52 184.07 L 449.029 235.291 C 449.354 235.485 449.663 235.841 449.767 236.17 C 449.871 236.499 449.842 236.978 449.668 237.314 C 449.493 237.649 449.118 237.948 448.789 238.052 C 448.46 238.156 447.991 238.108 447.645 237.953 L 351.997 188.219 L 449.567 327.87 L 448.748 328.443 C 448.665 328.288 448.588 328.266 448.424 328.237 C 448.26 328.208 448.181 328.201 448.051 328.318 C 447.896 328.401 447.874 328.478 447.845 328.642 C 447.816 328.806 447.81 328.886 447.927 329.016 L 447.107 329.588 L 346.058 184.957 C 345.987 184.856 345.911 184.717 345.865 184.599 C 345.808 184.438 345.768 184.232 345.768 184.07 C 345.768 183.977 345.782 183.859 345.799 183.766 C 345.827 183.642 345.884 183.484 345.946 183.361 C 345.977 183.305 346.013 183.246 346.05 183.194 L 447.108 38.551 C 447.342 38.254 447.735 37.995 448.075 37.934 C 448.415 37.874 448.874 37.983 449.197 38.182 Z M 448.25 38.919 C 448.086 38.948 448.009 38.97 447.926 39.125 L 346.87 183.766 C 346.853 183.789 346.841 183.806 346.83 183.829 C 346.799 183.881 346.789 183.908 346.779 183.968 C 346.769 184.011 346.768 184.029 346.768 184.07 C 346.768 184.146 346.769 184.176 346.801 184.247 C 346.816 184.297 346.829 184.32 346.866 184.367 L 346.98 184.53 L 347.003 184.494 C 347.014 184.501 347.026 184.508 347.038 184.514 C 347.037 184.514 347.037 184.514 347.038 184.514 L 347.038 184.514 C 347.038 184.514 347.038 184.514 347.038 184.514 C 347.038 184.514 347.038 184.514 347.038 184.514 L 347.008 184.57 L 447.128 327.872 C 447.229 327.73 447.35 327.6 447.477 327.5 C 447.616 327.414 447.78 327.345 447.949 327.299 L 348.845 185.453 L 448.107 237.065 C 448.251 237.165 448.329 237.149 448.487 237.099 C 448.646 237.048 448.7 237.007 448.78 236.852 C 448.861 236.698 448.864 236.63 448.814 236.472 C 448.763 236.313 448.732 236.24 448.567 236.179 L 348.352 184.07 L 448.567 131.961 C 448.732 131.9 448.763 131.827 448.814 131.668 C 448.864 131.509 448.861 131.442 448.78 131.288 C 448.7 131.133 448.646 131.092 448.487 131.041 C 448.329 130.991 448.251 130.975 448.107 131.075 L 348.845 182.687 L 448.747 39.698 C 448.865 39.567 448.858 39.488 448.829 39.324 C 448.8 39.16 448.779 39.083 448.623 39.001 C 448.494 38.884 448.414 38.89 448.25 38.919 Z" style="fill: none;"/>
  <rect width="149.566" height="76.028" style="stroke-width: 1.5px; fill: rgb(255, 234, 139);" x="447.337" y="0.43"/>
  <text style="fill: rgb(29, 29, 29); font-family: 'Roboto Condensed'; font-size: 20px; font-weight: 500; text-anchor: middle; white-space: pre; transform-origin: 510.448px 33.484px;" x="522.12" y="44.257">Integrated UI</text>
  <rect y="98.422" width="149.566" height="76.028" style="stroke-width: 1.5px; fill: rgb(255, 234, 139);" x="447.337"/>
  <text style="fill: rgb(29, 29, 29); font-family: 'Roboto Condensed'; font-size: 20px; font-weight: 500; text-anchor: middle; white-space: pre; transform-origin: 510.448px 131.476px;" x="522.12" y="142.249">Kompakkt</text>
  <rect y="195.865" width="149.566" height="76.028" style="stroke-width: 1.5px; fill: rgb(255, 234, 139);" x="447.337"/>
  <text style="fill: rgb(29, 29, 29); font-family: 'Roboto Condensed'; font-size: 20px; font-weight: 500; text-anchor: middle; white-space: pre; transform-origin: 510.448px 228.919px;" x="522.12" y="239.691">WikiBase</text>
  <rect y="292.231" width="149.566" height="76.028" style="stroke-width: 1.5px; fill: rgb(255, 234, 139);" x="447.337"/>
  <text style="fill: rgb(29, 29, 29); font-family: 'Roboto Condensed'; font-size: 20px; font-weight: 500; text-anchor: middle; white-space: pre; transform-origin: 510.448px 325.286px;" x="522.12" y="336.059">OpenRefine</text>
  <rect y="194.971" width="149.566" height="76.028" style="stroke-width: 1.5px; fill: rgb(255, 234, 139);" x="1115.792"/>
  <text style="fill: rgb(29, 29, 29); font-family: 'Roboto Condensed'; font-size: 20px; font-weight: 500; text-anchor: middle; white-space: pre; transform-origin: 1178.9px 228.025px;" x="1190.574" y="238.798">Ontologies</text>
  <rect y="291.963" width="149.566" height="76.028" style="stroke-width: 1.5px; fill: rgb(255, 234, 139);" x="1115.792"/>
  <text style="fill: rgb(29, 29, 29); font-family: 'Roboto Condensed'; font-size: 20px; font-weight: 500; text-anchor: middle; white-space: pre; transform-origin: 1178.9px 325.017px;" x="1190.574" y="335.79">Instances</text>
  <text style="fill: rgb(29, 29, 29); font-family: 'Roboto Condensed'; font-size: 24px; text-anchor: middle; white-space: pre; transform-origin: -93.187px -151.332px;" transform="matrix(0, -1, 1, 0, 1066.548706, 290.348801)" x="-141.086" y="-140.559">stateful</text>
  <g transform="matrix(1, 0, 0, 1, 108.544876, 1.359892)">
    <g>
      <path d="M 207.73 221.387 C 207.73 221.625 207.729 221.862 207.727 222.099 L 147.898 222.099 C 147.896 221.862 147.895 221.625 147.895 221.387 C 147.895 207.707 151.338 195.341 156.884 186.471 C 162.05 192.204 169.513 195.805 177.813 195.805 C 186.112 195.805 193.575 192.204 198.741 186.471 C 204.287 195.341 207.73 207.707 207.73 221.387 Z" style="stroke-width: 1.5px; fill: rgb(205, 205, 205);"/>
      <ellipse style="stroke-width: 1.5px; fill: rgb(205, 205, 205);" cx="177.813" cy="167.405" rx="21.707" ry="21.833"/>
    </g>
    <g transform="matrix(1, 0, 0, 1, 0, 96.527008)">
      <path d="M 207.73 221.387 C 207.73 221.625 207.729 221.862 207.727 222.099 L 147.898 222.099 C 147.896 221.862 147.895 221.625 147.895 221.387 C 147.895 207.707 151.338 195.341 156.884 186.471 C 162.05 192.204 169.513 195.805 177.813 195.805 C 186.112 195.805 193.575 192.204 198.741 186.471 C 204.287 195.341 207.73 207.707 207.73 221.387 Z" style="stroke-width: 1.5px; fill: rgb(205, 205, 205);"/>
      <ellipse style="stroke-width: 1.5px; fill: rgb(205, 205, 205);" cx="177.813" cy="167.405" rx="21.707" ry="21.833"/>
    </g>
    <g transform="matrix(1, 0, 0, 1, 0, -95.98877)">
      <path d="M 207.73 221.387 C 207.73 221.625 207.729 221.862 207.727 222.099 L 147.898 222.099 C 147.896 221.862 147.895 221.625 147.895 221.387 C 147.895 207.707 151.338 195.341 156.884 186.471 C 162.05 192.204 169.513 195.805 177.813 195.805 C 186.112 195.805 193.575 192.204 198.741 186.471 C 204.287 195.341 207.73 207.707 207.73 221.387 Z" style="stroke-width: 1.5px; fill: rgb(205, 205, 205);"/>
      <ellipse style="stroke-width: 1.5px; fill: rgb(205, 205, 205);" cx="177.813" cy="167.405" rx="21.707" ry="21.833"/>
    </g>
  </g>
  <g transform="matrix(1, 0, 0, 1, -39.159008, -14.902483)">
    <line style="stroke-linecap: square; fill: none; stroke-width: 2px; stroke: rgb(206, 206, 206);" x1="656.062" y1="403.162" x2="656.062" y2="423.495"/>
    <line style="stroke-linecap: square; fill: none; stroke-width: 2px; stroke: rgb(206, 206, 206);" x1="1134.951" y1="403.162" x2="1134.951" y2="423.495"/>
    <line style="stroke-linecap: square; fill: none; stroke-width: 2px; stroke: rgb(206, 206, 206);" x1="1134.951" y1="423.495" x2="656.062" y2="423.495"/>
  </g>
  <g transform="matrix(1, 0, 0, 1, -39.159008, -19.029495)">
    <path d="M 774.477 477.654 L 762.473 477.683 L 760.558 483.303 L 751.599 483.324 L 763.823 450.99 L 772.998 450.969 L 785.379 483.245 L 776.42 483.266 L 774.477 477.661 L 774.477 477.654 Z M 772.233 471.277 L 768.432 460.53 L 764.688 471.291 L 772.233 471.269 L 772.233 471.277 Z" fill="black" style=""/>
    <path d="M 797.64 483.209 L 797.562 450.903 L 805.963 450.882 L 821.532 470.597 L 821.483 450.845 L 829.84 450.824 L 829.92 483.131 L 821.56 483.152 L 805.992 463.436 L 806.042 483.187 L 797.64 483.209 Z" fill="black" style=""/>
    <path d="M 857.465 457.865 L 857.531 483.059 L 849.128 483.08 L 849.063 457.886 L 842.619 457.9 L 842.619 450.787 L 864.368 450.731 L 864.368 457.844 L 857.465 457.858 L 857.465 457.865 Z" fill="black" style=""/>
    <path d="M 895.061 457.772 L 885.071 457.793 L 885.085 463.192 L 894.518 463.169 L 894.531 470.283 L 885.099 470.304 L 885.113 475.874 L 895.103 475.853 L 895.117 482.965 L 876.726 483.007 L 876.648 450.701 L 895.038 450.659 L 895.054 457.772 L 895.061 457.772 Z" fill="black" style=""/>
    <path d="M 918.068 450.604 L 918.134 475.797 L 927.493 475.777 L 927.493 482.896 L 909.752 482.932 L 909.673 450.626 L 918.076 450.604 L 918.068 450.604 Z" fill="black" style=""/>
    <path d="M 936.124 466.705 C 936.124 464.305 936.552 462.072 937.437 460 C 938.324 457.928 939.546 456.115 941.112 454.573 C 942.676 453.022 944.554 451.816 946.741 450.938 C 948.927 450.059 951.328 449.617 953.957 449.617 C 956.586 449.617 958.959 450.038 961.159 450.909 C 963.36 451.774 965.259 452.98 966.845 454.515 C 968.44 456.05 969.676 457.857 970.569 459.928 C 971.461 461.999 971.904 464.226 971.912 466.633 C 971.912 469.032 971.483 471.268 970.597 473.339 C 969.718 475.409 968.482 477.224 966.903 478.767 C 965.324 480.309 963.431 481.522 961.23 482.401 C 959.03 483.279 956.628 483.723 954.028 483.723 C 951.429 483.723 948.992 483.3 946.805 482.429 C 944.619 481.566 942.733 480.358 941.161 478.823 C 939.581 477.288 938.352 475.481 937.46 473.411 C 936.566 471.339 936.124 469.111 936.116 466.705 L 936.124 466.705 Z M 944.912 466.684 C 944.912 467.969 945.162 469.154 945.647 470.24 C 946.133 471.326 946.797 472.269 947.626 473.061 C 948.455 473.86 949.42 474.474 950.527 474.917 C 951.628 475.36 952.793 475.575 954.021 475.575 C 955.25 475.575 956.415 475.346 957.515 474.902 C 958.616 474.46 959.588 473.832 960.423 473.033 C 961.267 472.231 961.924 471.289 962.409 470.196 C 962.895 469.111 963.131 467.927 963.131 466.64 C 963.131 465.355 962.881 464.17 962.395 463.083 C 961.909 461.999 961.237 461.057 960.393 460.264 C 959.55 459.464 958.572 458.85 957.472 458.408 C 956.371 457.964 955.208 457.751 953.979 457.751 C 952.749 457.751 951.585 457.978 950.485 458.421 C 949.385 458.863 948.42 459.492 947.598 460.293 C 946.769 461.092 946.112 462.035 945.633 463.127 C 945.155 464.219 944.912 465.399 944.912 466.684 Z" fill="black" style=""/>
    <path d="M 992.11 482.714 L 983.707 482.736 L 983.628 450.43 L 997.004 450.396 C 1000.633 450.386 1003.413 451.323 1005.349 453.202 C 1007.285 455.079 1008.257 457.736 1008.264 461.162 C 1008.271 464.59 1007.314 467.247 1005.391 469.14 C 1003.469 471.033 1000.691 471.982 997.062 471.989 L 992.088 472.003 L 992.117 482.714 L 992.11 482.714 Z M 992.068 465.234 L 994.854 465.234 C 997.94 465.219 999.476 463.876 999.476 461.184 C 999.476 458.492 997.926 457.165 994.838 457.172 L 992.052 457.172 L 992.074 465.234 L 992.068 465.234 Z" fill="black" style=""/>
    <path d="M 1038.245 457.407 L 1028.255 457.428 L 1028.269 462.828 L 1037.7 462.806 L 1037.714 469.918 L 1028.285 469.939 L 1028.299 475.51 L 1038.286 475.489 L 1038.301 482.601 L 1019.91 482.644 L 1019.832 450.339 L 1038.222 450.295 L 1038.236 457.407 L 1038.245 457.407 Z" fill="black" style=""/>
  </g>
  <path d="M 125.44 39.41 L 226.509 184.069 M 125.44 328.729 L 226.509 184.07 M 125.44 236.622 L 226.509 184.07 M 125.44 131.517 L 226.509 184.069" style="fill: none; stroke-width: 2px; stroke-linecap: round;"/>
  <path d="M 126.26 329.302 C 126.576 328.849 126.465 328.226 126.013 327.909 C 125.56 327.593 124.937 327.704 124.62 328.156 L 156.602 282.38 L 156.602 285.874 Z M 223.356 186.836 L 194.293 201.948 L 194.293 199.694 L 224.342 184.07 L 194.293 168.445 L 194.293 166.191 L 223.356 181.303 L 194.293 139.705 L 194.293 136.212 L 227.329 183.496 C 227.229 183.354 227.099 183.245 226.953 183.173 L 226.956 183.175 C 226.925 183.159 226.894 183.145 226.863 183.134 C 226.73 183.083 226.587 183.062 226.444 183.071 C 226.301 183.08 226.162 183.12 226.036 183.188 C 226.027 183.193 226.018 183.197 226.009 183.203 L 226.048 183.183 C 226.538 182.928 227.141 183.119 227.396 183.609 C 227.577 183.957 227.533 184.363 227.317 184.66 L 194.293 231.927 L 194.293 228.434 Z M 125.901 237.509 C 125.411 237.764 124.808 237.573 124.553 237.083 C 124.298 236.593 124.489 235.99 124.979 235.735 L 156.602 219.292 L 156.602 221.546 Z M 124.98 132.404 C 125.47 132.659 126.072 132.468 126.327 131.978 C 126.582 131.488 126.391 130.885 125.901 130.63 L 156.602 146.593 L 156.602 148.847 Z M 124.62 39.983 C 124.937 40.435 125.56 40.546 126.013 40.23 C 126.465 39.913 126.576 39.29 126.26 38.837 L 156.602 82.265 L 156.602 85.759 Z M 124.98 132.404 C 124.979 132.404 124.979 132.404 124.979 132.404 Z M 226.956 183.175 C 226.961 183.177 226.965 183.179 226.97 183.182 Z M 226.97 184.957 L 226.953 184.966 C 227.019 184.933 227.082 184.893 227.141 184.846 C 227.089 184.888 227.032 184.925 226.97 184.957 Z" style="fill: rgb(206, 206, 206);"/>
  <path d="M 125.85 329.016 C 125.967 328.886 125.961 328.806 125.932 328.642 C 125.903 328.478 125.881 328.401 125.726 328.319 C 125.596 328.201 125.517 328.208 125.353 328.237 C 125.189 328.266 125.112 328.288 125.029 328.443 L 124.21 327.87 L 221.78 188.219 L 126.132 237.953 C 125.786 238.108 125.317 238.156 124.988 238.052 C 124.659 237.948 124.284 237.649 124.109 237.314 C 123.935 236.978 123.906 236.499 124.01 236.17 C 124.114 235.841 124.423 235.485 124.748 235.291 L 223.258 184.07 L 124.749 132.848 L 124.749 132.848 C 124.749 132.848 124.748 132.848 124.748 132.848 L 125.21 131.96 L 125.21 131.961 L 125.21 131.961 C 125.354 132.06 125.432 132.044 125.591 131.994 C 125.749 131.943 125.803 131.902 125.883 131.747 C 125.964 131.593 125.967 131.525 125.917 131.367 C 125.866 131.208 125.835 131.135 125.67 131.074 L 126.132 130.186 L 221.78 179.92 L 124.21 40.269 L 125.029 39.696 C 125.112 39.851 125.189 39.873 125.353 39.902 C 125.517 39.931 125.597 39.937 125.726 39.82 C 125.882 39.738 125.903 39.661 125.932 39.497 C 125.961 39.333 125.967 39.253 125.85 39.123 L 126.67 38.551 L 227.739 183.21 L 227.729 183.217 C 227.77 183.269 227.807 183.324 227.84 183.378 C 228.047 183.869 227.989 184.529 227.727 184.946 L 126.67 329.588 Z M 126.649 327.873 L 226.754 184.593 L 226.719 184.524 L 226.739 184.513 C 226.78 184.493 226.796 184.484 226.826 184.457 L 226.838 184.472 L 226.907 184.374 C 227.077 184.197 227.107 184.045 226.952 183.84 C 226.944 183.817 226.935 183.796 226.926 183.778 L 226.919 183.782 L 226.844 183.675 C 226.815 183.652 226.78 183.636 226.738 183.62 L 226.736 183.624 L 226.719 183.615 L 226.72 183.613 C 226.701 183.607 226.681 183.6 226.659 183.593 C 226.501 183.543 226.423 183.527 226.279 183.627 L 226.237 183.648 L 225.732 182.787 C 225.778 182.761 225.804 182.746 225.793 182.751 C 225.886 182.704 225.998 182.661 226.113 182.628 L 126.649 40.267 C 126.548 40.409 126.427 40.539 126.3 40.639 C 126.161 40.725 125.997 40.794 125.828 40.84 L 224.932 182.686 L 126.916 131.721 C 126.894 131.895 126.845 132.065 126.771 132.209 C 126.696 132.353 126.584 132.49 126.455 132.608 L 225.426 184.07 L 125.21 236.179 C 125.045 236.24 125.014 236.313 124.963 236.472 C 124.913 236.63 124.916 236.698 124.997 236.852 C 125.077 237.007 125.131 237.048 125.29 237.099 C 125.448 237.149 125.526 237.165 125.67 237.065 L 224.932 185.453 L 125.829 327.299 C 125.997 327.345 126.161 327.414 126.299 327.499 C 126.427 327.6 126.548 327.73 126.649 327.873 Z" style="fill: none;"/>
  <rect width="126.798" height="367.684" style="stroke-width: 1.5px; fill: rgb(201, 234, 255);" x="0.642" y="0.307"/>
  <text style="fill: rgb(29, 29, 29); font-family: 'Roboto Condensed'; font-size: 24px; font-weight: 500; white-space: pre; text-anchor: middle; transform-origin: -152.757px -151.229px;" transform="matrix(0, -1, 1, 0, 214.269058, 347.321686)" x="-141.086" y="-140.559">CLOUD SERVICES</text>
  <text style="fill: rgb(29, 29, 29); font-family: Roboto; font-size: 16px; white-space: pre;" transform="matrix(1, 0, 0, 1, 378.842255, -237.083954)"><tspan x="339.029" y="302.201">URI<tspan x="339.02899169921875" dy="1.3em">​</tspan>Meta Data</tspan><tspan x="339.02899169921875" dy="1.3em">​</tspan><tspan>Raw Data</tspan><tspan x="339.02899169921875" dy="1.3em">​</tspan><tspan>Ontology</tspan><tspan x="339.02899169921875" dy="1.3em">​</tspan><tspan>ML Training Corpora</tspan><tspan x="339.02899169921875" dy="1.3em">​</tspan><tspan>Configuration</tspan><tspan x="339.02899169921875" dy="1.3em">​</tspan></text>
  <text style="fill: rgb(29, 29, 29); font-family: Roboto; font-size: 18px; text-anchor: middle; white-space: pre; transform-box: fill-box; transform-origin: 44.4503% 44.898%;" transform="matrix(0, -1, 1, 0, 29.199341, 4.452812)" x="157.688" y="200.032">Accessible Semantic Software</text>
  <text style="fill: rgb(29, 29, 29); font-family: Roboto; font-size: 18px; text-anchor: middle; white-space: pre; transform-origin: -235.003px -97.086px;" transform="matrix(0, 1, -1, 0, 632.204117, 281.145096)" x="-235.003" y="-91.763">Support Data Annotation</text>
</svg>